{"title":"Avatar 3D (2009).mkv","uid":6828183,"size":12517313125,"categoryP":"video","categoryS":"3d","magnet":"?xt=urn:btih:66754b4e35f737dc5f2c252eca474521fb75663c&amp;dn=Avatar+3D+%282009%29.mkv&amp;tr=udp%3A%2F%2Ftracker.openbittorrent.com%3A80&amp;tr=udp%3A%2F%2Fopen.demonii.com%3A1337&amp;tr=udp%3A%2F%2Ftracker.coppersurfer.tk%3A6969&amp;tr=udp%3A%2F%2Fexodus.desync.com%3A6969","seeders":2,"leechers":0,"uploader":"Beebe85","files":1,"time":1321662937,"description":"Avatar 3D (2009) 3DTV Active Shutter (side by side)\n\n\n Format                           : Matroska\nFormat version                   : Version 2\nFile size                        : 11.7 GiB\nDuration                         : 2h 41mn\nOverall bit rate                 : 10.3 Mbps\nMovie name                       : RED_BIRD_3D_WW.Title852.Bluray3DRip\nEncoded date                     : UTC 2011-11-18 20:29:31\nWriting application              : DVDFab\nWriting library                  : libebml v0.7.8 + libmatroska v0.8.1\n\nVideo\nID                               : 1\nFormat                           : AVC\nFormat/Info                      : Advanced Video Codec\nFormat profile                   : &lt;a class=&quot;__cf_email__&quot; href=&quot;/cdn-cgi/l/email-protection&quot; data-cfemail=&quot;aae2c3cdc2eae69f849b&quot;&gt;[email&amp;#160;protected]&lt;/a&gt;&lt;script cf-hash='f9e31' type=&quot;text/javascript&quot;&gt;\n/* &lt;![CDATA[ */!function(){try{var t=&quot;currentScript&quot;in document?document.currentScript:function(){for(var t=document.getElementsByTagName(&quot;script&quot;),e=t.length;e--;)if(t[e].getAttribute(&quot;cf-hash&quot;))return t[e]}();if(t&amp;&amp;t.previousSibling){var e,r,n,i,c=t.previousSibling,a=c.getAttribute(&quot;data-cfemail&quot;);if(a){for(e=&quot;&quot;,r=parseInt(a.substr(0,2),16),n=2;a.length-n;n+=2)i=parseInt(a.substr(n,2),16)^r,e+=String.fromCharCode(i);e=document.createTextNode(e),c.parentNode.replaceChild(e,c)}}}catch(u){}}();/* ]]&gt; */&lt;/script&gt;\nFormat settings, CABAC           : Yes\nFormat settings, ReFrames        : 2 frames\nFormat settings, GOP             : M=3, N=15\nCodec ID                         : V_MPEG4/ISO/AVC\nDuration                         : 2h 41mn\nBit rate mode                    : Variable\nBit rate                         : 9 796 Kbps\nMaximum bit rate                 : 15.0 Mbps\nWidth                            : 1 920 pixels\nHeight                           : 1 080 pixels\nDisplay aspect ratio             : 16:9\nFrame rate                       : 23.976 fps\nColor space                      : YUV\nChroma subsampling               : 4:2:0\nBit depth                        : 8 bits\nScan type                        : Progressive\nBits/(Pixel*Frame)               : 0.197\nStream size                      : 11.1 GiB (95%)\n\nAudio\nID                               : 2\nFormat                           : AC-3\nFormat/Info                      : Audio Coding 3\nMode extension                   : CM (complete main)\nCodec ID                         : A_AC3\nDuration                         : 2h 41mn\nBit rate mode                    : Constant\nBit rate                         : 320 Kbps\nChannel(s)                       : 6 channels\nChannel positions                : Front: L C R, Side: L R, LFE\nSampling rate                    : 48.0 KHz\nBit depth                        : 16 bits\nCompression mode                 : Lossy\nStream size                      : 370 MiB (3%)\n\n &lt;a href=&quot;\nhttp://www.imdb.com/title/tt0499549/&quot; rel=&quot;nofollow&quot; target=&quot;_NEW&quot;&gt;\nhttp://www.imdb.com/title/tt0499549/&lt;/a&gt;","torrent":{"xt":"urn:btih:66754b4e35f737dc5f2c252eca474521fb75663c","amp;dn":"Avatar+3D+%282009%29.mkv","amp;tr":["udp%3A%2F%2Ftracker.openbittorrent.com%3A80","udp%3A%2F%2Fopen.demonii.com%3A1337","udp%3A%2F%2Ftracker.coppersurfer.tk%3A6969","udp%3A%2F%2Fexodus.desync.com%3A6969"],"infoHash":"66754b4e35f737dc5f2c252eca474521fb75663c","infoHashBuffer":{"type":"Buffer","data":[102,117,75,78,53,247,55,220,95,44,37,46,202,71,69,33,251,117,102,60]},"announce":[],"urlList":[]}}